<svg id="Layer_1" data-name="Layer 1" xmlns="http://www.w3.org/2000/svg" viewBox="0 0 135 135"><defs><style>.cls-1{fill:#2968b2;}.cls-2{fill:#fff;}</style></defs><circle class="cls-1" cx="67.5" cy="67.5" r="67.5"/><path class="cls-2" d="M311.05,386.49c1.11-1.25,2-2.51,3.16-3.59A17.34,17.34,0,0,1,326.69,378a28.41,28.41,0,0,1,7.84,1c5.86,1.69,9.26,5.72,10.89,11.45a48.3,48.3,0,0,1,1.45,13.12c0,9.32,0,18.64,0,28,0,.87-.24,1.1-1.1,1.09q-7.22-.06-14.41,0c-.85,0-1-.25-1-1.05q0-13.31,0-26.62a23.76,23.76,0,0,0-.78-6.6c-1.14-4-4-6-8.17-5.79-5.69.3-8.66,3.12-9.38,8.91a32.16,32.16,0,0,0-.26,4.16c0,8.63,0,17.26,0,25.89,0,.86-.22,1.11-1.1,1.1-4.83,0-9.67,0-14.51,0-.78,0-1-.2-1-1q0-25.62,0-51.25c0-.84.28-1,1.07-1q6.9,0,13.79,0c.84,0,1.06.27,1,1.07C311,382.4,311.05,384.44,311.05,386.49Z" transform="translate(-238.33 -328.2)"/><path class="cls-2" d="M284.73,406c0,8.45,0,16.9,0,25.36,0,.93-.23,1.22-1.2,1.21-4.8-.05-9.61,0-14.41,0-.77,0-1-.19-1-1q0-25.66,0-51.34c0-.71.17-1,.92-.95,4.87,0,9.74,0,14.61,0,.94,0,1.07.35,1.06,1.16Q284.71,393.23,284.73,406Z" transform="translate(-238.33 -328.2)"/><path class="cls-2" d="M286.05,362.34a9.59,9.59,0,1,1-9.57-9.54A9.61,9.61,0,0,1,286.05,362.34Z" transform="translate(-238.33 -328.2)"/></svg>