<svg id="Layer_1" data-name="Layer 1" xmlns="http://www.w3.org/2000/svg" xmlns:xlink="http://www.w3.org/1999/xlink" viewBox="0 0 135 135"><defs><style>.cls-1{fill:url(#linear-gradient);}.cls-2{fill:#fff;fill-rule:evenodd;}</style><linearGradient id="linear-gradient" x1="67.5" y1="125.19" x2="67.5" y2="-9.81" gradientUnits="userSpaceOnUse"><stop offset="0" stop-color="#4fb848"/><stop offset="1" stop-color="#86c76c"/></linearGradient></defs><circle class="cls-1" cx="67.5" cy="67.5" r="67.5"/><g id="WA_Logo" data-name="WA Logo"><path class="cls-2" d="M349.59,339.71a42.83,42.83,0,0,0-67.4,51.65l-6.07,22.18,22.7-6a42.74,42.74,0,0,0,20.46,5.21h0a42.82,42.82,0,0,0,30.29-73.09ZM319.3,405.57h0a35.53,35.53,0,0,1-18.11-5l-1.3-.77-13.47,3.53L290,390.24l-.84-1.34a35.59,35.59,0,1,1,30.15,16.67Zm19.52-26.65c-1.07-.53-6.33-3.12-7.31-3.48s-1.7-.53-2.41.54-2.76,3.48-3.39,4.19-1.24.8-2.31.27a29.49,29.49,0,0,1-8.61-5.31,32.21,32.21,0,0,1-6-7.41c-.62-1.07-.07-1.65.47-2.18s1.07-1.25,1.6-1.88a6.91,6.91,0,0,0,1.07-1.78,2,2,0,0,0-.09-1.87c-.26-.54-2.4-5.8-3.29-7.95s-1.76-1.8-2.41-1.83-1.34,0-2.05,0a4,4,0,0,0-2.86,1.34,12,12,0,0,0-3.74,8.92c0,5.27,3.83,10.35,4.37,11.07s7.54,11.51,18.28,16.15a60.33,60.33,0,0,0,6.1,2.25,14.62,14.62,0,0,0,6.73.42c2.06-.3,6.33-2.58,7.23-5.08s.89-4.64.62-5.09S339.89,379.46,338.82,378.92Z" transform="translate(-249.62 -303.85)"/></g></svg>